<svg width="49" height="37" viewBox="0 0 49 37" fill="none" xmlns="http://www.w3.org/2000/svg">
<path d="M0.65 18.4C0.65 14.9333 1.4 11.85 2.9 9.15C4.4 6.41667 6.48333 4.3 9.15 2.8C11.85 1.26666 14.9 0.499998 18.3 0.499998C22.4667 0.499998 26.0333 1.6 29 3.8C31.9667 6 33.95 9 34.95 12.8H25.55C24.85 11.3333 23.85 10.2167 22.55 9.45C21.2833 8.68333 19.8333 8.3 18.2 8.3C15.5667 8.3 13.4333 9.21667 11.8 11.05C10.1667 12.8833 9.35 15.3333 9.35 18.4C9.35 21.4667 10.1667 23.9167 11.8 25.75C13.4333 27.5833 15.5667 28.5 18.2 28.5C19.8333 28.5 21.2833 28.1167 22.55 27.35C23.85 26.5833 24.85 25.4667 25.55 24H34.95C33.95 27.8 31.9667 30.8 29 33C26.0333 35.1667 22.4667 36.25 18.3 36.25C14.9 36.25 11.85 35.5 9.15 34C6.48333 32.4667 4.4 30.35 2.9 27.65C1.4 24.95 0.65 21.8667 0.65 18.4ZM48.7359 0.899999V36H40.1859V0.899999H48.7359Z" fill="white"/>
</svg>
