<svg width="295" height="86" viewBox="0 0 295 86" fill="none" xmlns="http://www.w3.org/2000/svg">
<path d="M103.32 46.92V75H96.48V46.92H103.32ZM121.877 52.44C124.49 52.44 126.57 53.2933 128.117 55C129.69 56.68 130.477 59 130.477 61.96V75H123.677V62.88C123.677 61.3867 123.29 60.2267 122.517 59.4C121.744 58.5733 120.704 58.16 119.397 58.16C118.09 58.16 117.05 58.5733 116.277 59.4C115.504 60.2267 115.117 61.3867 115.117 62.88V75H108.277V52.68H115.117V55.64C115.81 54.6533 116.744 53.88 117.917 53.32C119.09 52.7333 120.41 52.44 121.877 52.44ZM145.27 68.6L150.11 52.68H157.39L149.47 75H141.03L133.11 52.68H140.43L145.27 68.6ZM181.309 63.48C181.309 64.12 181.269 64.7867 181.189 65.48H165.709C165.816 66.8667 166.256 67.9333 167.029 68.68C167.829 69.4 168.802 69.76 169.949 69.76C171.656 69.76 172.842 69.04 173.509 67.6H180.789C180.416 69.0667 179.736 70.3867 178.749 71.56C177.789 72.7333 176.576 73.6533 175.109 74.32C173.642 74.9867 172.002 75.32 170.189 75.32C168.002 75.32 166.056 74.8533 164.349 73.92C162.642 72.9867 161.309 71.6533 160.349 69.92C159.389 68.1867 158.909 66.16 158.909 63.84C158.909 61.52 159.376 59.4933 160.309 57.76C161.269 56.0267 162.602 54.6933 164.309 53.76C166.016 52.8267 167.976 52.36 170.189 52.36C172.349 52.36 174.269 52.8133 175.949 53.72C177.629 54.6267 178.936 55.92 179.869 57.6C180.829 59.28 181.309 61.24 181.309 63.48ZM174.309 61.68C174.309 60.5067 173.909 59.5733 173.109 58.88C172.309 58.1867 171.309 57.84 170.109 57.84C168.962 57.84 167.989 58.1733 167.189 58.84C166.416 59.5067 165.936 60.4533 165.749 61.68H174.309ZM198.518 52.44C201.131 52.44 203.211 53.2933 204.758 55C206.331 56.68 207.118 59 207.118 61.96V75H200.318V62.88C200.318 61.3867 199.931 60.2267 199.158 59.4C198.384 58.5733 197.344 58.16 196.038 58.16C194.731 58.16 193.691 58.5733 192.918 59.4C192.144 60.2267 191.758 61.3867 191.758 62.88V75H184.918V52.68H191.758V55.64C192.451 54.6533 193.384 53.88 194.558 53.32C195.731 52.7333 197.051 52.44 198.518 52.44ZM224.311 69.2V75H220.831C218.351 75 216.417 74.4 215.031 73.2C213.644 71.9733 212.951 69.9867 212.951 67.24V58.36H210.231V52.68H212.951V47.24H219.791V52.68H224.271V58.36H219.791V67.32C219.791 67.9867 219.951 68.4667 220.271 68.76C220.591 69.0533 221.124 69.2 221.871 69.2H224.311ZM238.281 75.32C236.094 75.32 234.121 74.8533 232.361 73.92C230.627 72.9867 229.254 71.6533 228.241 69.92C227.254 68.1867 226.761 66.16 226.761 63.84C226.761 61.5467 227.267 59.5333 228.281 57.8C229.294 56.04 230.681 54.6933 232.441 53.76C234.201 52.8267 236.174 52.36 238.361 52.36C240.547 52.36 242.521 52.8267 244.281 53.76C246.041 54.6933 247.427 56.04 248.441 57.8C249.454 59.5333 249.961 61.5467 249.961 63.84C249.961 66.1333 249.441 68.16 248.401 69.92C247.387 71.6533 245.987 72.9867 244.201 73.92C242.441 74.8533 240.467 75.32 238.281 75.32ZM238.281 69.4C239.587 69.4 240.694 68.92 241.601 67.96C242.534 67 243.001 65.6267 243.001 63.84C243.001 62.0533 242.547 60.68 241.641 59.72C240.761 58.76 239.667 58.28 238.361 58.28C237.027 58.28 235.921 58.76 235.041 59.72C234.161 60.6533 233.721 62.0267 233.721 63.84C233.721 65.6267 234.147 67 235.001 67.96C235.881 68.92 236.974 69.4 238.281 69.4ZM260.429 56.4C261.229 55.1733 262.229 54.2133 263.429 53.52C264.629 52.8 265.963 52.44 267.429 52.44V59.68H265.549C263.843 59.68 262.563 60.0533 261.709 60.8C260.856 61.52 260.429 62.8 260.429 64.64V75H253.589V52.68H260.429V56.4ZM293.499 52.68L279.499 85.6H272.139L277.259 74.24L268.179 52.68H275.819L280.979 66.64L286.099 52.68H293.499Z" fill="white"/>
<path d="M1.32 29.92C1.32 27.1467 1.92 24.68 3.12 22.52C4.32 20.3333 5.98667 18.64 8.12 17.44C10.28 16.2133 12.72 15.6 15.44 15.6C18.7733 15.6 21.6267 16.48 24 18.24C26.3733 20 27.96 22.4 28.76 25.44H21.24C20.68 24.2667 19.88 23.3733 18.84 22.76C17.8267 22.1467 16.6667 21.84 15.36 21.84C13.2533 21.84 11.5467 22.5733 10.24 24.04C8.93333 25.5067 8.28 27.4667 8.28 29.92C8.28 32.3733 8.93333 34.3333 10.24 35.8C11.5467 37.2667 13.2533 38 15.36 38C16.6667 38 17.8267 37.6933 18.84 37.08C19.88 36.4667 20.68 35.5733 21.24 34.4H28.76C27.96 37.44 26.3733 39.84 24 41.6C21.6267 43.3333 18.7733 44.2 15.44 44.2C12.72 44.2 10.28 43.6 8.12 42.4C5.98667 41.1733 4.32 39.48 3.12 37.32C1.92 35.16 1.32 32.6933 1.32 29.92ZM31.5888 32.8C31.5888 30.5067 32.0154 28.4933 32.8688 26.76C33.7488 25.0267 34.9354 23.6933 36.4288 22.76C37.9221 21.8267 39.5888 21.36 41.4288 21.36C43.0021 21.36 44.3754 21.68 45.5488 22.32C46.7488 22.96 47.6688 23.8 48.3088 24.84V21.68H55.1488V44H48.3088V40.84C47.6421 41.88 46.7088 42.72 45.5088 43.36C44.3354 44 42.9621 44.32 41.3888 44.32C39.5754 44.32 37.9221 43.8533 36.4288 42.92C34.9354 41.96 33.7488 40.6133 32.8688 38.88C32.0154 37.12 31.5888 35.0933 31.5888 32.8ZM48.3088 32.84C48.3088 31.1333 47.8288 29.7867 46.8688 28.8C45.9354 27.8133 44.7888 27.32 43.4288 27.32C42.0688 27.32 40.9088 27.8133 39.9488 28.8C39.0154 29.76 38.5488 31.0933 38.5488 32.8C38.5488 34.5067 39.0154 35.8667 39.9488 36.88C40.9088 37.8667 42.0688 38.36 43.4288 38.36C44.7888 38.36 45.9354 37.8667 46.8688 36.88C47.8288 35.8933 48.3088 34.5467 48.3088 32.84ZM66.9372 25.4C67.7372 24.1733 68.7372 23.2133 69.9372 22.52C71.1372 21.8 72.4705 21.44 73.9372 21.44V28.68H72.0572C70.3505 28.68 69.0705 29.0533 68.2172 29.8C67.3639 30.52 66.9372 31.8 66.9372 33.64V44H60.0972V21.68H66.9372V25.4ZM75.8466 32.8C75.8466 30.5067 76.2732 28.4933 77.1266 26.76C78.0066 25.0267 79.1932 23.6933 80.6866 22.76C82.1799 21.8267 83.8466 21.36 85.6866 21.36C87.1532 21.36 88.4866 21.6667 89.6866 22.28C90.9132 22.8933 91.8732 23.72 92.5666 24.76V14.4H99.4066V44H92.5666V40.8C91.9266 41.8667 91.0066 42.72 89.8066 43.36C88.6332 44 87.2599 44.32 85.6866 44.32C83.8466 44.32 82.1799 43.8533 80.6866 42.92C79.1932 41.96 78.0066 40.6133 77.1266 38.88C76.2732 37.12 75.8466 35.0933 75.8466 32.8ZM92.5666 32.84C92.5666 31.1333 92.0866 29.7867 91.1266 28.8C90.1932 27.8133 89.0466 27.32 87.6866 27.32C86.3266 27.32 85.1666 27.8133 84.2066 28.8C83.2732 29.76 82.8066 31.0933 82.8066 32.8C82.8066 34.5067 83.2732 35.8667 84.2066 36.88C85.1666 37.8667 86.3266 38.36 87.6866 38.36C89.0466 38.36 90.1932 37.8667 91.1266 36.88C92.0866 35.8933 92.5666 34.5467 92.5666 32.84ZM107.795 19.36C106.595 19.36 105.608 19.0133 104.835 18.32C104.088 17.6 103.715 16.72 103.715 15.68C103.715 14.6133 104.088 13.7333 104.835 13.04C105.608 12.32 106.595 11.96 107.795 11.96C108.968 11.96 109.928 12.32 110.675 13.04C111.448 13.7333 111.835 14.6133 111.835 15.68C111.835 16.72 111.448 17.6 110.675 18.32C109.928 19.0133 108.968 19.36 107.795 19.36ZM111.195 21.68V44H104.355V21.68H111.195ZM129.752 21.44C132.365 21.44 134.445 22.2933 135.992 24C137.565 25.68 138.352 28 138.352 30.96V44H131.552V31.88C131.552 30.3867 131.165 29.2267 130.392 28.4C129.619 27.5733 128.579 27.16 127.272 27.16C125.965 27.16 124.925 27.5733 124.152 28.4C123.379 29.2267 122.992 30.3867 122.992 31.88V44H116.152V21.68H122.992V24.64C123.685 23.6533 124.619 22.88 125.792 22.32C126.965 21.7333 128.285 21.44 129.752 21.44ZM141.745 32.8C141.745 30.5067 142.172 28.4933 143.025 26.76C143.905 25.0267 145.092 23.6933 146.585 22.76C148.078 21.8267 149.745 21.36 151.585 21.36C153.158 21.36 154.532 21.68 155.705 22.32C156.905 22.96 157.825 23.8 158.465 24.84V21.68H165.305V44H158.465V40.84C157.798 41.88 156.865 42.72 155.665 43.36C154.492 44 153.118 44.32 151.545 44.32C149.732 44.32 148.078 43.8533 146.585 42.92C145.092 41.96 143.905 40.6133 143.025 38.88C142.172 37.12 141.745 35.0933 141.745 32.8ZM158.465 32.84C158.465 31.1333 157.985 29.7867 157.025 28.8C156.092 27.8133 154.945 27.32 153.585 27.32C152.225 27.32 151.065 27.8133 150.105 28.8C149.172 29.76 148.705 31.0933 148.705 32.8C148.705 34.5067 149.172 35.8667 150.105 36.88C151.065 37.8667 152.225 38.36 153.585 38.36C154.945 38.36 156.092 37.8667 157.025 36.88C157.985 35.8933 158.465 34.5467 158.465 32.84ZM177.093 14.4V44H170.253V14.4H177.093Z" fill="white"/>
</svg>
