<?xml version="1.0" encoding="utf-8"?>
<!-- Generator: Adobe Illustrator 25.2.1, SVG Export Plug-In . SVG Version: 6.00 Build 0)  -->
<svg version="1.1" id="Layer_1" xmlns="http://www.w3.org/2000/svg" xmlns:xlink="http://www.w3.org/1999/xlink" x="0px" y="0px"
	 viewBox="0 0 848.3 615.2" style="enable-background:new 0 0 848.3 615.2;" xml:space="preserve">
<style type="text/css">
	.st0{fill:#3F3D56;}
	.st1{fill:#FCC931;}
	.st2{fill:#2F2E41;}
	.st3{fill:#FFB8B8;}
	.st4{fill:#6C63FF;}
</style>
<path class="st0" d="M642.7,131.4h-607c-4.8,0-8.7,3.9-8.7,8.7v411.3c0,4.8,3.9,8.7,8.7,8.7h607c2.6,0,5-1.1,6.6-3.1
	c0.1-0.1,0.1-0.2,0.2-0.2c0.5-0.6,0.9-1.3,1.3-2.1c0.4-1,0.7-2.2,0.7-3.3V140.1C651.5,135.3,647.6,131.4,642.7,131.4z M649,551.5
	c0,1.2-0.4,2.4-1,3.4c-0.6,0.9-1.4,1.6-2.4,2.1c-0.9,0.5-1.9,0.7-2.9,0.7h-607c-3.4,0-6.2-2.8-6.2-6.2V140.1c0-3.4,2.8-6.2,6.2-6.2
	h607c3.4,0,6.2,2.8,6.2,6.2V551.5z"/>
<rect x="28.3" y="166.4" class="st0" width="622" height="2.5"/>
<circle class="st0" cx="49.5" cy="150.1" r="7.5"/>
<circle class="st0" cx="71" cy="150.1" r="7.5"/>
<circle class="st0" cx="92.5" cy="150.1" r="7.5"/>
<path class="st0" d="M495.3,224.1h-312c-7.2,0-13-5.8-13-13s5.8-13,13-13h312c7.2,0,13,5.8,13,13S502.5,224.1,495.3,224.1z
	 M183.3,200.1c-6.1,0-11,4.9-11,11s4.9,11,11,11h312c6.1,0,11-4.9,11-11s-4.9-11-11-11H183.3z"/>
<path class="st1" d="M209.2,376.7h-120c-9.4,0-17-7.6-17-17v-56c0-9.4,7.6-17,17-17h120c9.4,0,17,7.6,17,17v56
	C226.2,369.1,218.6,376.7,209.2,376.7z"/>
<path class="st1" d="M399.2,376.7h-120c-9.4,0-17-7.6-17-17v-56c0-9.4,7.6-17,17-17h120c9.4,0,17,7.6,17,17v56
	C416.2,369.1,408.6,376.7,399.2,376.7z"/>
<path class="st1" d="M589.2,376.7h-120c-9.4,0-17-7.6-17-17v-56c0-9.4,7.6-17,17-17h120c9.4,0,17,7.6,17,17v56
	C606.2,369.1,598.6,376.7,589.2,376.7z"/>
<path class="st1" d="M209.2,494.7h-120c-9.4,0-17-7.6-17-17v-56c0-9.4,7.6-17,17-17h120c9.4,0,17,7.6,17,17v56
	C226.2,487.1,218.6,494.7,209.2,494.7z"/>
<path class="st1" d="M399.2,494.7h-120c-9.4,0-17-7.6-17-17v-56c0-9.4,7.6-17,17-17h120c9.4,0,17,7.6,17,17v56
	C416.2,487.1,408.6,494.7,399.2,494.7z"/>
<path class="st1" d="M589.2,494.7h-120c-9.4,0-17-7.6-17-17v-56c0-9.4,7.6-17,17-17h120c9.4,0,17,7.6,17,17v56
	C606.2,487.1,598.6,494.7,589.2,494.7z"/>
<circle class="st2" cx="697.1" cy="248.7" r="33"/>
<path class="st3" d="M614.4,420.4c-2.8-5.3-0.7-11.7,4.5-14.5c0.6-0.3,1.1-0.5,1.7-0.7l41.8-88.5l19.1,13.4l-47.1,82.7
	c1.4,5.8-2.1,11.6-7.9,13.1C621.8,427.1,616.7,424.8,614.4,420.4L614.4,420.4z"/>
<path class="st4" d="M650.3,328.5c-0.4-1.3-0.2-2.8,0.6-4l13-20.4c3-6.7,10.9-9.8,17.7-6.8c6.7,3,9.7,10.9,6.8,17.6l-6.5,23.4
	c-0.7,2.6-3.4,4.1-5.9,3.3c-0.2-0.1-0.4-0.1-0.7-0.2l-22.2-9.9C651.6,330.9,650.7,329.8,650.3,328.5z"/>
<path class="st3" d="M755.5,429.2c-5.8-1.3-9.4-7.1-8-12.9c0.1-0.6,0.3-1.2,0.6-1.8L708.4,325l22.7-5.7l31.8,89.7
	c5.3,2.7,7.4,9.2,4.7,14.5C765.4,428,760.3,430.3,755.5,429.2L755.5,429.2z"/>
<polygon class="st3" points="766.3,591.4 754.8,595.6 733.1,553.1 750.1,546.9 "/>
<path class="st2" d="M745.3,595.3l22.2-8.1l0,0l5.1,14l0,0l-36.2,13.2l0,0l0,0C733.6,606.6,737.6,598.1,745.3,595.3L745.3,595.3z"/>
<path class="st2" d="M734.8,564.5l-43.9-76.8c-0.9-1.5-0.8-3.4,0.1-4.9l19.8-32.9c1.4-2.3,4.3-3,6.6-1.7c1,0.6,1.7,1.5,2.1,2.5
	l37.4,103.5c0.9,2.3-0.2,4.9-2.5,6l-13.2,6.3c-0.6,0.3-1.3,0.5-2,0.5C737.3,566.9,735.7,566,734.8,564.5z"/>
<circle class="st3" cx="694.1" cy="260.2" r="24.6"/>
<path class="st1" d="M659.2,371.5c-19.3-42.9,0.2-66.9,9.4-75.2c2.7-2.4,6.1-3.7,9.7-3.7h34.6c8.1,0,14.6,6.5,14.6,14.6
	c0,2.3-0.5,4.5-1.5,6.5l-23.1,46.3l-43.5,12L659.2,371.5z"/>
<path class="st1" d="M709.8,341.1c-1.3-0.6-2.2-1.7-2.6-3l-6.9-23.2c-3.1-6.7-0.2-14.7,6.5-17.8c6.7-3.1,14.6-0.3,17.7,6.4
	l13.4,20.2c1.5,2.2,0.9,5.2-1.4,6.7c-0.2,0.1-0.4,0.2-0.6,0.3l-22,10.3C712.5,341.6,711.1,341.6,709.8,341.1z"/>
<polygon class="st3" points="687.1,603 674.9,603 669.1,555.7 687.1,555.7 "/>
<path class="st2" d="M666.1,599.5h23.6l0,0v14.9l0,0h-38.5l0,0l0,0C651.2,606.1,657.9,599.5,666.1,599.5L666.1,599.5z"/>
<path class="st2" d="M682,584.9l-19.6-2.3c-2.6-0.3-4.5-2.7-4.2-5.3c0,0,0-0.1,0-0.1l17.5-131.9c0.1-0.5,0-0.9-0.1-1.4l-17.6-72.6
	c-0.3-1.4-0.1-2.8,0.8-3.9c2.7-3.8,12.1-12.5,39.9-12.7h0c1.9,0,3.6,1.1,4.4,2.8l3.7,8.2c0.3,0.6,0.7,1.1,1.3,1.5
	c5.1,3.6,29.9,23.9,15.3,68.5c-14.3,43.8-32.6,128.9-36.1,145.5c-0.5,2.2-2.4,3.8-4.7,3.8C682.3,584.9,682.1,584.9,682,584.9z"/>
<path class="st2" d="M719.9,244.8c-5.6,3.9-12.3,5.9-19.1,5.9c2.4,1.7,5.2,2.8,8.1,3.3c-9.1,1.9-18.4,2-27.5,0.2c-2-0.3-4-1-5.8-2
	c-1.8-1-3.1-2.7-3.6-4.8c-0.6-3.4,2.1-6.6,4.9-8.7c8.7-6.4,19.8-8.7,30.2-6c3.4,0.9,6.8,2.3,9,5.1s2.8,6.9,0.8,9.7L719.9,244.8z"/>
<path class="st2" d="M703.5,227.7c-2.8-0.9-5.7-1.9-7.9-3.9s-3.6-5.1-2.6-7.9c1-2.7,3.9-4.2,6.7-4.5s5.6,0.7,8.4,1.5
	c-1.2-1.9-2.5-5.4-3.6-9.2c-2.5-8.7,8-16.6,17-15.9c0.3,0,0.5,0,0.8,0.1c9.1,1.3,13.8,4.8,20.1,11.4c7.9,8.3,12.1,19.5,14.8,30.6
	s4.4,22.6,8.3,33.3s10.5,21.1,20.5,26.6c11.2,5.9,24.8,5.1,35.3-2.2c2.4,16.6-9.1,32.1-25.7,34.5c-3.1,0.5-6.2,0.4-9.3-0.1
	c-13-2.1-23.4-12.6-29-24.5s-7.1-25.3-8.5-38.4s-2.8-26.4-8.2-38.4c-2.2-4.9-5.4-9.8-11.1-10.6c-3.1-0.5-6.1,1.1-7.4,4
	c-2.5,6.1,6.1,11.3,3.9,17.1c-1,2.3-3.2,3.8-5.7,3.9c-4.2,0.3-7.6-2.1-10.8-4.4C703,226.1,703.5,227.7,703.5,227.7z"/>
<path class="st0" d="M847.3,615.2h-230c-0.6,0-1-0.4-1-1s0.4-1,1-1h230c0.6,0,1,0.4,1,1S847.8,615.2,847.3,615.2z"/>
</svg>
